<svg xmlns="http://www.w3.org/2000/svg" version="1.1" xmlns:xlink="http://www.w3.org/1999/xlink" viewBox="0 0 200 200"><rect width="200" height="200" fill="url('#gradient')"></rect><defs><linearGradient id="gradient" gradientTransform="rotate(117 0.5 0.5)"><stop offset="0%" stop-color="#463c32"></stop><stop offset="100%" stop-color="#212121"></stop></linearGradient></defs><g><g fill="#ffffff" transform="matrix(7.065152838427948,0,0,7.065152838427948,13.415689726896161,150.23261249100798)" stroke="#87c659" stroke-width="0.2"><path d="M9.89-8.57L9.89-6.03L4.50-6.03L4.50-2.64L10.87-2.64L10.87 0L1.07 0L1.07-14.22L10.89-14.22L10.89-11.57L4.50-11.57L4.50-8.57L9.89-8.57ZM16.94 0L12.27 0L12.27-14.22L16.85-14.22Q18.73-14.22 20.23-13.36Q21.74-12.51 22.58-10.95Q23.43-9.39 23.44-7.46L23.44-7.46L23.44-6.81Q23.44-4.85 22.61-3.31Q21.79-1.76 20.29-0.88Q18.79-0.01 16.94 0L16.94 0ZM16.85-11.57L15.69-11.57L15.69-2.64L16.88-2.64Q18.36-2.64 19.15-3.69Q19.94-4.74 19.94-6.81L19.94-6.81L19.94-7.42Q19.94-9.48 19.15-10.53Q18.36-11.57 16.85-11.57L16.85-11.57Z"></path></g></g></svg>